<svg width="108" height="87" viewBox="0 0 108 87" fill="none" xmlns="http://www.w3.org/2000/svg">
<path d="M40.2679 34.3764H40.2952V33.8764C40.2952 15.6501 55.2259 0.809814 73.5766 0.809814C91.9273 0.809814 106.858 15.6501 106.858 33.8764C106.858 62.8439 83.154 86.4017 53.9932 86.4017C24.8325 86.4017 1.12842 62.8439 1.12842 33.8764C1.12842 28.5057 2.98719 23.2478 6.55559 18.9395L6.55572 18.9394C12.6455 11.581 23.0782 8.66957 32.1408 11.7236L32.1265 11.7521L32.6482 11.9475C33.902 12.4169 34.9602 13.2597 35.6209 14.4131L35.6232 14.4169C36.3964 15.7391 36.5953 17.2743 36.1989 18.7624C35.4954 21.3224 33.1704 23.0242 30.6106 23.0242C30.1311 23.0242 29.6249 22.9537 29.1091 22.8258C27.6138 22.431 26.3733 21.4837 25.5984 20.1591C25.3344 19.7042 25.1537 19.2061 25.0247 18.6932L24.9287 18.3117L24.5353 18.3152C20.0134 18.3553 15.5413 20.3002 12.6001 23.8673C9.44887 27.681 8.25246 32.5671 9.32534 37.314L9.32544 37.3145C10.3982 42.0409 13.5769 45.9409 18.023 48.0093C24.4975 51.0248 32.4231 49.178 36.8568 43.6259L36.8569 43.6258C38.996 40.9449 40.163 37.7499 40.2679 34.3764ZM15.51 55.3651L14.1378 54.7872L14.8831 56.0762C22.6651 69.5342 37.279 78.6453 53.9932 78.6453C66.3301 78.6453 77.5391 73.6863 85.6778 65.6584L85.1524 64.8338C81.5424 66.1765 77.6454 66.9429 73.5766 66.9429C60.5346 66.9429 49.2474 59.4478 43.7868 48.5577L43.4367 47.8596L42.9492 48.4697C38.4476 54.1038 31.5253 57.194 24.5202 57.194C21.473 57.194 18.4056 56.5846 15.51 55.3651ZM99.0455 33.8764C99.0455 19.9176 87.6169 8.5663 73.5766 8.5663C59.5364 8.5663 48.1078 19.9176 48.1078 33.8764C48.1078 47.8351 59.5364 59.1864 73.5766 59.1864C87.6169 59.1864 99.0455 47.8351 99.0455 33.8764Z" fill="white" stroke="#15594D"/>
</svg>

