<svg width="20" height="20" viewBox="0 0 20 20" fill="none" xmlns="http://www.w3.org/2000/svg">
<g clip-path="url(#clip0)">
<path d="M4.44448 10.0001C4.44448 11.2274 3.44955 12.2223 2.22224 12.2223C0.99493 12.2223 -1.50785e-07 11.2274 -9.71372e-08 10.0001C-4.34898e-08 8.77276 0.99493 7.77783 2.22224 7.77783C3.44955 7.77783 4.44448 8.77276 4.44448 10.0001Z" fill="black"/>
<path d="M12.2223 10.0001C12.2223 11.2274 11.2274 12.2223 10.0001 12.2223C8.77276 12.2223 7.77783 11.2274 7.77783 10.0001C7.77783 8.77276 8.77276 7.77783 10.0001 7.77783C11.2274 7.77783 12.2223 8.77276 12.2223 10.0001Z" fill="black"/>
<path d="M19.9996 10.0001C19.9996 11.2274 19.0047 12.2223 17.7774 12.2223C16.5501 12.2223 15.5552 11.2274 15.5552 10.0001C15.5552 8.77276 16.5501 7.77783 17.7774 7.77783C19.0047 7.77783 19.9996 8.77276 19.9996 10.0001Z" fill="black"/>
</g>
<defs>
<clipPath id="clip0">
<rect width="20" height="20" fill="white" transform="matrix(-4.37114e-08 1 1 4.37114e-08 0 0)"/>
</clipPath>
</defs>
</svg>
