<svg width="25" height="26" viewBox="0 0 25 26" fill="none" xmlns="http://www.w3.org/2000/svg">
<g clip-path="url(#clip0)">
<path d="M23.6222 12.0383H7.20982C6.68848 12.0383 6.26587 12.4609 6.26587 12.9823C6.26587 13.5036 6.68848 13.9262 7.20982 13.9262H23.6222C24.1436 13.9262 24.5662 13.5036 24.5662 12.9823C24.5662 12.4609 24.1436 12.0383 23.6222 12.0383Z" fill="white"/>
<path d="M23.6222 4.95874H7.20982C6.68848 4.95874 6.26587 5.38135 6.26587 5.90269C6.26587 6.42404 6.68848 6.84665 7.20982 6.84665H23.6222C24.1436 6.84665 24.5662 6.42404 24.5662 5.90269C24.5662 5.38135 24.1436 4.95874 23.6222 4.95874Z" fill="white"/>
<path d="M23.6222 19.1179H7.20982C6.68848 19.1179 6.26587 19.5405 6.26587 20.0619C6.26587 20.5832 6.68848 21.0058 7.20982 21.0058H23.6222C24.1436 21.0058 24.5662 20.5832 24.5662 20.0619C24.5662 19.5405 24.1436 19.1179 23.6222 19.1179Z" fill="white"/>
<path d="M1.67546 7.17685C2.37926 7.17685 2.9498 6.60631 2.9498 5.90251C2.9498 5.19871 2.37926 4.62817 1.67546 4.62817C0.971663 4.62817 0.401123 5.19871 0.401123 5.90251C0.401123 6.60631 0.971663 7.17685 1.67546 7.17685Z" fill="white"/>
<path d="M1.67546 14.2567C2.37926 14.2567 2.9498 13.6861 2.9498 12.9823C2.9498 12.2785 2.37926 11.708 1.67546 11.708C0.971663 11.708 0.401123 12.2785 0.401123 12.9823C0.401123 13.6861 0.971663 14.2567 1.67546 14.2567Z" fill="white"/>
<path d="M1.67546 21.3363C2.37926 21.3363 2.9498 20.7657 2.9498 20.0619C2.9498 19.3581 2.37926 18.7876 1.67546 18.7876C0.971663 18.7876 0.401123 19.3581 0.401123 20.0619C0.401123 20.7657 0.971663 21.3363 1.67546 21.3363Z" fill="white"/>
</g>
<defs>
<clipPath id="clip0">
<rect width="24.1652" height="24.1652" fill="white" transform="translate(0.401123 0.899658)"/>
</clipPath>
</defs>
</svg>

