<svg width="16" height="16" viewBox="0 0 16 16" fill="none" xmlns="http://www.w3.org/2000/svg">
<path d="M15.04 14.3329L11.3424 10.4872C12.2931 9.35698 12.814 7.93498 12.814 6.45461C12.814 2.99588 10 0.181885 6.54128 0.181885C3.08255 0.181885 0.268555 2.99588 0.268555 6.45461C0.268555 9.91334 3.08255 12.7273 6.54128 12.7273C7.83974 12.7273 9.0771 12.3357 10.135 11.5922L13.8607 15.4672C14.0165 15.6289 14.2259 15.7181 14.4504 15.7181C14.6628 15.7181 14.8644 15.6371 15.0174 15.4898C15.3425 15.177 15.3528 14.6582 15.04 14.3329ZM6.54128 1.81825C9.09783 1.81825 11.1776 3.89807 11.1776 6.45461C11.1776 9.01116 9.09783 11.091 6.54128 11.091C3.98474 11.091 1.90492 9.01116 1.90492 6.45461C1.90492 3.89807 3.98474 1.81825 6.54128 1.81825Z" fill="#262121"/>
</svg>
