<svg width="23" height="25" viewBox="0 0 23 25" fill="none" xmlns="http://www.w3.org/2000/svg">
<path d="M10.823 23.7217C10.823 24.2431 10.4005 24.6657 9.87908 24.6657H4.45135C2.36931 24.6657 0.675537 22.9719 0.675537 20.8899V4.2763C0.675537 2.19426 2.36931 0.500488 4.45135 0.500488H16.0568C18.1387 0.500488 19.8326 2.19426 19.8326 4.2763V14.2822C19.8326 14.8036 19.4099 15.2262 18.8887 15.2262C18.3673 15.2262 17.9447 14.8036 17.9447 14.2822V4.2763C17.9447 3.23537 17.0977 2.38839 16.0568 2.38839H4.45135C3.41042 2.38839 2.56344 3.23537 2.56344 4.2763V20.8899C2.56344 21.9308 3.41042 22.7778 4.45135 22.7778H9.87908C10.4005 22.7778 10.823 23.2003 10.823 23.7217ZM21.9447 15.8746C21.5209 15.5711 20.9313 15.6688 20.6278 16.0925L15.9749 22.5917C15.8479 22.7391 15.6886 22.7708 15.6034 22.7765C15.5153 22.7822 15.345 22.7711 15.1988 22.6319L12.1866 19.7396C11.8107 19.3786 11.2131 19.3906 10.852 19.7667C10.4908 20.1428 10.503 20.7403 10.8791 21.1013L13.8942 23.9966C14.3459 24.4264 14.9486 24.6657 15.5688 24.6657C15.6221 24.6657 15.6755 24.6638 15.729 24.6603C16.4045 24.6153 17.0352 24.2868 17.4595 23.7588C17.4703 23.7453 17.481 23.7313 17.4912 23.7171L22.1628 17.1915C22.4663 16.7676 22.3688 16.178 21.9447 15.8746ZM15.1129 6.16421H5.39014C4.86875 6.16421 4.44619 6.58677 4.44619 7.10816C4.44619 7.62954 4.86875 8.05211 5.39014 8.05211H15.1129C15.6341 8.05211 16.0568 7.62954 16.0568 7.10816C16.0568 6.58677 15.6341 6.16421 15.1129 6.16421ZM16.0568 10.884C16.0568 10.3626 15.6341 9.94002 15.1129 9.94002H5.39014C4.86875 9.94002 4.44619 10.3626 4.44619 10.884C4.44619 11.4054 4.86875 11.8279 5.39014 11.8279H15.1129C15.6341 11.8279 16.0568 11.4054 16.0568 10.884ZM5.39014 13.7158C4.86875 13.7158 4.44619 14.1384 4.44619 14.6598C4.44619 15.1812 4.86875 15.6037 5.39014 15.6037H11.295C11.8164 15.6037 12.239 15.1812 12.239 14.6598C12.239 14.1384 11.8164 13.7158 11.295 13.7158H5.39014Z" fill="white"/>
</svg>

